<svg width="123" height="117" viewBox="0 0 123 117" fill="none" xmlns="http://www.w3.org/2000/svg">
<path fill-rule="evenodd" clip-rule="evenodd" d="M108.778 27.3415H94.1759V13.5766C94.1759 6.36378 87.9554 0.5 80.3041 0.5H42.3389C34.6876 0.5 28.4671 6.36378 28.4671 13.5766V27.3415H13.8652C6.21371 27.3415 -0.00665283 33.2054 -0.00665283 40.4181V76.2069C-0.00665283 83.4196 6.21371 89.2835 13.8652 89.2835H28.4671V103.048C28.4671 110.261 34.6876 116.125 42.3389 116.125H80.3041C87.9554 116.125 94.1759 110.261 94.1759 103.048V89.2835H108.778C116.429 89.2835 122.65 83.4196 122.65 76.2069V40.4181C122.65 33.2054 116.429 27.3415 108.778 27.3415ZM13.8652 81.0246C11.0471 81.0246 8.75453 78.8634 8.75453 76.2069V40.4181C8.75453 37.7616 11.047 35.6004 13.8652 35.6004H56.5759C58.9999 35.6004 60.9564 33.7559 60.9564 31.471C60.9564 29.186 58.9997 27.3415 56.5759 27.3415H37.2284V13.5766C37.2284 10.9201 39.5209 8.75895 42.3389 8.75895H80.3041C83.1221 8.75895 85.4147 10.92 85.4147 13.5766V50.6454C85.4147 52.6 83.7354 54.1831 81.662 54.1831H40.9809C34.0743 54.1831 28.4671 59.4825 28.4671 65.9796V81.0246H13.8652ZM113.888 76.2069C113.888 78.8634 111.596 81.0246 108.778 81.0246H66.067C63.643 81.0246 61.6865 82.8691 61.6865 85.154C61.6865 87.439 63.6432 89.2835 66.067 89.2835H85.4145V103.048C85.4145 105.705 83.1221 107.866 80.3041 107.866H42.3389C39.5209 107.866 37.2283 105.705 37.2283 103.048V65.9796C37.2283 64.025 38.9076 62.4419 40.9809 62.4419H81.662C88.5686 62.4419 94.1759 57.1425 94.1759 50.6454V35.6004H108.778C111.596 35.6004 113.888 37.7616 113.888 40.4181V76.2069Z" fill="#F4D9D9"/>
</svg>
